<svg width="7" height="10" viewBox="0 0 7 10" fill="none" xmlns="http://www.w3.org/2000/svg">
<path d="M1.59122 4.28764C1.22724 4.66667 0.63711 4.66667 0.273127 4.28764C-0.0908552 3.90862 -0.090855 3.29409 0.273127 2.91506L2.79948 0.284272C3.16346 -0.0947568 3.75359 -0.0947577 4.11758 0.284271C4.48156 0.6633 4.48156 1.27783 4.11758 1.65686L1.59122 4.28764Z" fill="#454545"/>
<path d="M2.88257 1.68952C2.51858 1.31049 2.51858 0.695967 2.88257 0.316938C3.24655 -0.0620913 3.83668 -0.0620911 4.20066 0.316938L6.72701 2.94772C7.091 3.32675 7.091 3.94128 6.72701 4.32031C6.36303 4.69934 5.7729 4.69934 5.40892 4.32031L2.88257 1.68952Z" fill="#454545"/>
<path d="M5.40878 5.71236C5.77276 5.33333 6.36289 5.33333 6.72687 5.71235C7.09086 6.09138 7.09086 6.70591 6.72687 7.08494L4.20052 9.71573C3.83654 10.0948 3.24641 10.0948 2.88242 9.71573C2.51844 9.3367 2.51844 8.72217 2.88242 8.34314L5.40878 5.71236Z" fill="#454545"/>
<path d="M4.11743 8.31048C4.48142 8.6895 4.48142 9.30403 4.11743 9.68306C3.75345 10.0621 3.16332 10.0621 2.79934 9.68306L0.272987 7.05227C-0.0909952 6.67325 -0.0909961 6.05872 0.272986 5.67969C0.636969 5.30066 1.2271 5.30066 1.59108 5.67969L4.11743 8.31048Z" fill="#454545"/>
</svg>
