<svg width="337" height="84" viewBox="0 0 337 84" fill="none" xmlns="http://www.w3.org/2000/svg">
<path d="M23.5938 0C29.4062 0 33.9167 1.53125 37.125 4.59375C40.3333 7.65625 42.1146 11.1354 42.4688 15.0312H36.4062C35.7188 12.0729 34.3438 9.72917 32.2812 8C30.2396 6.27083 27.3646 5.40625 23.6562 5.40625C19.1354 5.40625 15.4792 7 12.6875 10.1875C9.91667 13.3542 8.53125 18.2188 8.53125 24.7812C8.53125 30.1562 9.78125 34.5208 12.2812 37.875C14.8021 41.2083 18.5521 42.875 23.5312 42.875C28.1146 42.875 31.6042 41.1146 34 37.5938C35.2708 35.7396 36.2188 33.3021 36.8438 30.2812H42.9062C42.3646 35.1146 40.5729 39.1667 37.5312 42.4375C33.8854 46.375 28.9688 48.3438 22.7812 48.3438C17.4479 48.3438 12.9688 46.7292 9.34375 43.5C4.57292 39.2292 2.1875 32.6354 2.1875 23.7188C2.1875 16.9479 3.97917 11.3958 7.5625 7.0625C11.4375 2.35417 16.7812 0 23.5938 0ZM50.5 1.25H56.7188V41.6875H79.9688V47.1562H50.5V1.25ZM87.5312 1.25H93.8125V47.1562H87.5312V1.25ZM103.938 1.25H111.281L134.469 38.4375V1.25H140.375V47.1562H133.406L109.875 10V47.1562H103.938V1.25ZM151.594 1.25H157.875V47.1562H151.594V1.25ZM187.844 0.0625C192.156 0.0625 195.885 0.895833 199.031 2.5625C203.594 4.95833 206.385 9.15625 207.406 15.1562H201.25C200.5 11.8021 198.948 9.36458 196.594 7.84375C194.24 6.30208 191.271 5.53125 187.688 5.53125C183.438 5.53125 179.854 7.125 176.938 10.3125C174.042 13.5 172.594 18.25 172.594 24.5625C172.594 30.0208 173.792 34.4688 176.188 37.9062C178.583 41.3229 182.49 43.0312 187.906 43.0312C192.052 43.0312 195.479 41.8333 198.188 39.4375C200.917 37.0208 202.312 33.125 202.375 27.75H188V22.5938H208.156V47.1562H204.156L202.656 41.25C200.552 43.5625 198.688 45.1667 197.062 46.0625C194.333 47.6042 190.865 48.375 186.656 48.375C181.219 48.375 176.542 46.6146 172.625 43.0938C168.354 38.6771 166.219 32.6146 166.219 24.9062C166.219 17.2188 168.302 11.1042 172.469 6.5625C176.427 2.22917 181.552 0.0625 187.844 0.0625ZM218.406 1.25H251.875V6.875H224.469V20.8125H249.812V26.125H224.469V41.6875H252.344V47.1562H218.406V1.25ZM264.562 32.3438C264.708 34.9479 265.323 37.0625 266.406 38.6875C268.469 41.7292 272.104 43.25 277.312 43.25C279.646 43.25 281.771 42.9167 283.688 42.25C287.396 40.9583 289.25 38.6458 289.25 35.3125C289.25 32.8125 288.469 31.0312 286.906 29.9688C285.323 28.9271 282.844 28.0208 279.469 27.25L273.25 25.8438C269.188 24.9271 266.312 23.9167 264.625 22.8125C261.708 20.8958 260.25 18.0312 260.25 14.2188C260.25 10.0938 261.677 6.70833 264.531 4.0625C267.385 1.41667 271.427 0.09375 276.656 0.09375C281.469 0.09375 285.552 1.26042 288.906 3.59375C292.281 5.90625 293.969 9.61458 293.969 14.7188H288.125C287.812 12.2604 287.146 10.375 286.125 9.0625C284.229 6.66667 281.01 5.46875 276.469 5.46875C272.802 5.46875 270.167 6.23958 268.562 7.78125C266.958 9.32292 266.156 11.1146 266.156 13.1562C266.156 15.4062 267.094 17.0521 268.969 18.0938C270.198 18.7604 272.979 19.5938 277.312 20.5938L283.75 22.0625C286.854 22.7708 289.25 23.7396 290.938 24.9688C293.854 27.1146 295.312 30.2292 295.312 34.3125C295.312 39.3958 293.458 43.0312 289.75 45.2188C286.062 47.4062 281.771 48.5 276.875 48.5C271.167 48.5 266.698 47.0417 263.469 44.125C260.24 41.2292 258.656 37.3021 258.719 32.3438H264.562ZM336.594 1.25V6.71875H321.125V47.1562H314.812V6.71875H299.344V1.25H336.594ZM1.60938 61.4531C1.64583 62.1042 1.79948 62.6328 2.07031 63.0391C2.58594 63.7995 3.49479 64.1797 4.79688 64.1797C5.38021 64.1797 5.91146 64.0964 6.39062 63.9297C7.31771 63.6068 7.78125 63.0286 7.78125 62.1953C7.78125 61.5703 7.58594 61.125 7.19531 60.8594C6.79948 60.599 6.17969 60.3724 5.33594 60.1797L3.78125 59.8281C2.76562 59.599 2.04688 59.3464 1.625 59.0703C0.895833 58.5911 0.53125 57.875 0.53125 56.9219C0.53125 55.8906 0.888021 55.0443 1.60156 54.3828C2.3151 53.7214 3.32552 53.3906 4.63281 53.3906C5.83594 53.3906 6.85677 53.6823 7.69531 54.2656C8.53906 54.8438 8.96094 55.7708 8.96094 57.0469H7.5C7.42188 56.4323 7.25521 55.9609 7 55.6328C6.52604 55.0339 5.72135 54.7344 4.58594 54.7344C3.66927 54.7344 3.01042 54.9271 2.60938 55.3125C2.20833 55.6979 2.00781 56.1458 2.00781 56.6562C2.00781 57.2188 2.24219 57.6302 2.71094 57.8906C3.01823 58.0573 3.71354 58.2656 4.79688 58.5156L6.40625 58.8828C7.18229 59.0599 7.78125 59.3021 8.20312 59.6094C8.93229 60.1458 9.29688 60.9245 9.29688 61.9453C9.29688 63.2161 8.83333 64.125 7.90625 64.6719C6.98438 65.2188 5.91146 65.4922 4.6875 65.4922C3.26042 65.4922 2.14323 65.1276 1.33594 64.3984C0.528646 63.6745 0.132812 62.6927 0.148438 61.4531H1.60938ZM11.6172 53.6797H13.1875V65.1562H11.6172V53.6797ZM16.7344 61.4531C16.7708 62.1042 16.9245 62.6328 17.1953 63.0391C17.7109 63.7995 18.6198 64.1797 19.9219 64.1797C20.5052 64.1797 21.0365 64.0964 21.5156 63.9297C22.4427 63.6068 22.9062 63.0286 22.9062 62.1953C22.9062 61.5703 22.7109 61.125 22.3203 60.8594C21.9245 60.599 21.3047 60.3724 20.4609 60.1797L18.9062 59.8281C17.8906 59.599 17.1719 59.3464 16.75 59.0703C16.0208 58.5911 15.6562 57.875 15.6562 56.9219C15.6562 55.8906 16.013 55.0443 16.7266 54.3828C17.4401 53.7214 18.4505 53.3906 19.7578 53.3906C20.9609 53.3906 21.9818 53.6823 22.8203 54.2656C23.6641 54.8438 24.0859 55.7708 24.0859 57.0469H22.625C22.5469 56.4323 22.3802 55.9609 22.125 55.6328C21.651 55.0339 20.8464 54.7344 19.7109 54.7344C18.7943 54.7344 18.1354 54.9271 17.7344 55.3125C17.3333 55.6979 17.1328 56.1458 17.1328 56.6562C17.1328 57.2188 17.3672 57.6302 17.8359 57.8906C18.1432 58.0573 18.8385 58.2656 19.9219 58.5156L21.5312 58.8828C22.3073 59.0599 22.9062 59.3021 23.3281 59.6094C24.0573 60.1458 24.4219 60.9245 24.4219 61.9453C24.4219 63.2161 23.9583 64.125 23.0312 64.6719C22.1094 65.2188 21.0365 65.4922 19.8125 65.4922C18.3854 65.4922 17.2682 65.1276 16.4609 64.3984C15.6536 63.6745 15.2578 62.6927 15.2734 61.4531H16.7344ZM34.7422 53.6797V55.0469H30.875V65.1562H29.2969V55.0469H25.4297V53.6797H34.7422ZM36.3203 53.6797H44.6875V55.0859H37.8359V58.5703H44.1719V59.8984H37.8359V63.7891H44.8047V65.1562H36.3203V53.6797ZM46.8047 53.6797H49.0312L52.3281 63.3828L55.6016 53.6797H57.8047V65.1562H56.3281V58.3828C56.3281 58.1484 56.3333 57.7604 56.3438 57.2188C56.3542 56.6771 56.3594 56.0964 56.3594 55.4766L53.0859 65.1562H51.5469L48.25 55.4766V55.8281C48.25 56.1094 48.2552 56.5391 48.2656 57.1172C48.2812 57.6901 48.2891 58.112 48.2891 58.3828V65.1562H46.8047V53.6797ZM66.0625 60.4531L64.3203 55.3828L62.4688 60.4531H66.0625ZM63.5078 53.6797H65.2656L69.4297 65.1562H67.7266L66.5625 61.7188H62.0234L60.7812 65.1562H59.1875L63.5078 53.6797ZM79.4375 60.4531L77.6953 55.3828L75.8438 60.4531H79.4375ZM76.8828 53.6797H78.6406L82.8047 65.1562H81.1016L79.9375 61.7188H75.3984L74.1562 65.1562H72.5625L76.8828 53.6797ZM88.625 63.8281C89.151 63.8281 89.5833 63.7734 89.9219 63.6641C90.526 63.4609 91.0208 63.0703 91.4062 62.4922C91.7135 62.0286 91.9349 61.4349 92.0703 60.7109C92.1484 60.2786 92.1875 59.8776 92.1875 59.5078C92.1875 58.0859 91.9036 56.9818 91.3359 56.1953C90.7734 55.4089 89.8646 55.0156 88.6094 55.0156H85.8516V63.8281H88.625ZM84.2891 53.6797H88.9375C90.5156 53.6797 91.7396 54.2396 92.6094 55.3594C93.3854 56.3698 93.7734 57.6641 93.7734 59.2422C93.7734 60.4609 93.5443 61.5625 93.0859 62.5469C92.2786 64.2865 90.8906 65.1562 88.9219 65.1562H84.2891V53.6797ZM95.7422 53.6797H97.9688L101.266 63.3828L104.539 53.6797H106.742V65.1562H105.266V58.3828C105.266 58.1484 105.271 57.7604 105.281 57.2188C105.292 56.6771 105.297 56.0964 105.297 55.4766L102.023 65.1562H100.484L97.1875 55.4766V55.8281C97.1875 56.1094 97.1927 56.5391 97.2031 57.1172C97.2188 57.6901 97.2266 58.112 97.2266 58.3828V65.1562H95.7422V53.6797ZM109.461 53.6797H111.031V65.1562H109.461V53.6797ZM113.562 53.6797H115.398L121.195 62.9766V53.6797H122.672V65.1562H120.93L115.047 55.8672V65.1562H113.562V53.6797ZM125.477 53.6797H127.047V65.1562H125.477V53.6797ZM130.594 61.4531C130.63 62.1042 130.784 62.6328 131.055 63.0391C131.57 63.7995 132.479 64.1797 133.781 64.1797C134.365 64.1797 134.896 64.0964 135.375 63.9297C136.302 63.6068 136.766 63.0286 136.766 62.1953C136.766 61.5703 136.57 61.125 136.18 60.8594C135.784 60.599 135.164 60.3724 134.32 60.1797L132.766 59.8281C131.75 59.599 131.031 59.3464 130.609 59.0703C129.88 58.5911 129.516 57.875 129.516 56.9219C129.516 55.8906 129.872 55.0443 130.586 54.3828C131.299 53.7214 132.31 53.3906 133.617 53.3906C134.82 53.3906 135.841 53.6823 136.68 54.2656C137.523 54.8438 137.945 55.7708 137.945 57.0469H136.484C136.406 56.4323 136.24 55.9609 135.984 55.6328C135.51 55.0339 134.706 54.7344 133.57 54.7344C132.654 54.7344 131.995 54.9271 131.594 55.3125C131.193 55.6979 130.992 56.1458 130.992 56.6562C130.992 57.2188 131.227 57.6302 131.695 57.8906C132.003 58.0573 132.698 58.2656 133.781 58.5156L135.391 58.8828C136.167 59.0599 136.766 59.3021 137.188 59.6094C137.917 60.1458 138.281 60.9245 138.281 61.9453C138.281 63.2161 137.818 64.125 136.891 64.6719C135.969 65.2188 134.896 65.4922 133.672 65.4922C132.245 65.4922 131.128 65.1276 130.32 64.3984C129.513 63.6745 129.117 62.6927 129.133 61.4531H130.594ZM148.602 53.6797V55.0469H144.734V65.1562H143.156V55.0469H139.289V53.6797H148.602ZM155.367 58.9375C156.096 58.9375 156.672 58.7917 157.094 58.5C157.521 58.2083 157.734 57.6823 157.734 56.9219C157.734 56.1042 157.438 55.5469 156.844 55.25C156.526 55.0938 156.102 55.0156 155.57 55.0156H151.773V58.9375H155.367ZM150.219 53.6797H155.531C156.406 53.6797 157.128 53.8073 157.695 54.0625C158.773 54.5521 159.312 55.4557 159.312 56.7734C159.312 57.4609 159.169 58.0234 158.883 58.4609C158.602 58.8984 158.206 59.25 157.695 59.5156C158.143 59.6979 158.479 59.9375 158.703 60.2344C158.932 60.5312 159.06 61.013 159.086 61.6797L159.141 63.2188C159.156 63.6562 159.193 63.9818 159.25 64.1953C159.344 64.5599 159.51 64.7943 159.75 64.8984V65.1562H157.844C157.792 65.0573 157.75 64.9297 157.719 64.7734C157.688 64.6172 157.661 64.3151 157.641 63.8672L157.547 61.9531C157.51 61.2031 157.232 60.7005 156.711 60.4453C156.414 60.3047 155.948 60.2344 155.312 60.2344H151.773V65.1562H150.219V53.6797ZM167.484 60.4531L165.742 55.3828L163.891 60.4531H167.484ZM164.93 53.6797H166.688L170.852 65.1562H169.148L167.984 61.7188H163.445L162.203 65.1562H160.609L164.93 53.6797ZM179.445 53.6797V55.0469H175.578V65.1562H174V55.0469H170.133V53.6797H179.445ZM181.227 53.6797H182.797V65.1562H181.227V53.6797ZM186.234 53.6797L189.531 63.4531L192.789 53.6797H194.531L190.344 65.1562H188.695L184.516 53.6797H186.234ZM200.953 53.3672C202.979 53.3672 204.479 54.0182 205.453 55.3203C206.214 56.3359 206.594 57.6354 206.594 59.2188C206.594 60.9323 206.159 62.3568 205.289 63.4922C204.268 64.8255 202.812 65.4922 200.922 65.4922C199.156 65.4922 197.768 64.9089 196.758 63.7422C195.857 62.6172 195.406 61.1953 195.406 59.4766C195.406 57.9245 195.792 56.5964 196.562 55.4922C197.552 54.0755 199.016 53.3672 200.953 53.3672ZM201.109 64.1016C202.479 64.1016 203.469 63.612 204.078 62.6328C204.693 61.6484 205 60.5182 205 59.2422C205 57.8932 204.646 56.8073 203.938 55.9844C203.234 55.1615 202.271 54.75 201.047 54.75C199.859 54.75 198.891 55.1589 198.141 55.9766C197.391 56.7891 197.016 57.9896 197.016 59.5781C197.016 60.849 197.336 61.9219 197.977 62.7969C198.622 63.6667 199.667 64.1016 201.109 64.1016ZM217.742 53.3672C219.195 53.3672 220.323 53.75 221.125 54.5156C221.927 55.2812 222.372 56.151 222.461 57.125H220.945C220.773 56.3854 220.43 55.7995 219.914 55.3672C219.404 54.9349 218.685 54.7188 217.758 54.7188C216.628 54.7188 215.714 55.1172 215.016 55.9141C214.323 56.7057 213.977 57.9219 213.977 59.5625C213.977 60.9062 214.289 61.9974 214.914 62.8359C215.544 63.6693 216.482 64.0859 217.727 64.0859C218.872 64.0859 219.745 63.6458 220.344 62.7656C220.661 62.3021 220.898 61.6927 221.055 60.9375H222.57C222.435 62.1458 221.987 63.1589 221.227 63.9766C220.315 64.9609 219.086 65.4531 217.539 65.4531C216.206 65.4531 215.086 65.0495 214.18 64.2422C212.987 63.1745 212.391 61.526 212.391 59.2969C212.391 57.6042 212.839 56.2161 213.734 55.1328C214.703 53.9557 216.039 53.3672 217.742 53.3672ZM224.469 53.6797H226.023V63.7891H231.836V65.1562H224.469V53.6797ZM233.727 53.6797H235.297V65.1562H233.727V53.6797ZM236.156 50.5469L234.07 52.8047H232.992L234.422 50.5469H236.156ZM237.828 53.6797H239.664L245.461 62.9766V53.6797H246.938V65.1562H245.195L239.312 55.8672V65.1562H237.828V53.6797ZM249.742 53.6797H251.312V65.1562H249.742V53.6797ZM258.68 53.3672C260.133 53.3672 261.26 53.75 262.062 54.5156C262.865 55.2812 263.31 56.151 263.398 57.125H261.883C261.711 56.3854 261.367 55.7995 260.852 55.3672C260.341 54.9349 259.622 54.7188 258.695 54.7188C257.565 54.7188 256.651 55.1172 255.953 55.9141C255.26 56.7057 254.914 57.9219 254.914 59.5625C254.914 60.9062 255.227 61.9974 255.852 62.8359C256.482 63.6693 257.419 64.0859 258.664 64.0859C259.81 64.0859 260.682 63.6458 261.281 62.7656C261.599 62.3021 261.836 61.6927 261.992 60.9375H263.508C263.372 62.1458 262.924 63.1589 262.164 63.9766C261.253 64.9609 260.023 65.4531 258.477 65.4531C257.143 65.4531 256.023 65.0495 255.117 64.2422C253.924 63.1745 253.328 61.526 253.328 59.2969C253.328 57.6042 253.776 56.2161 254.672 55.1328C255.641 53.9557 256.977 53.3672 258.68 53.3672ZM270.359 53.3672C272.385 53.3672 273.885 54.0182 274.859 55.3203C275.62 56.3359 276 57.6354 276 59.2188C276 60.9323 275.565 62.3568 274.695 63.4922C273.674 64.8255 272.219 65.4922 270.328 65.4922C268.562 65.4922 267.174 64.9089 266.164 63.7422C265.263 62.6172 264.812 61.1953 264.812 59.4766C264.812 57.9245 265.198 56.5964 265.969 55.4922C266.958 54.0755 268.422 53.3672 270.359 53.3672ZM270.516 64.1016C271.885 64.1016 272.875 63.612 273.484 62.6328C274.099 61.6484 274.406 60.5182 274.406 59.2422C274.406 57.8932 274.052 56.8073 273.344 55.9844C272.641 55.1615 271.677 54.75 270.453 54.75C269.266 54.75 268.297 55.1589 267.547 55.9766C266.797 56.7891 266.422 57.9896 266.422 59.5781C266.422 60.849 266.742 61.9219 267.383 62.7969C268.029 63.6667 269.073 64.1016 270.516 64.1016ZM277.305 59.9766H281.227V61.4219H277.305V59.9766ZM5.54688 71.3672C7.57292 71.3672 9.07292 72.0182 10.0469 73.3203C10.8073 74.3359 11.1875 75.6354 11.1875 77.2188C11.1875 78.9323 10.7526 80.3568 9.88281 81.4922C8.86198 82.8255 7.40625 83.4922 5.51562 83.4922C3.75 83.4922 2.36198 82.9089 1.35156 81.7422C0.450521 80.6172 0 79.1953 0 77.4766C0 75.9245 0.385417 74.5964 1.15625 73.4922C2.14583 72.0755 3.60938 71.3672 5.54688 71.3672ZM5.70312 82.1016C7.07292 82.1016 8.0625 81.612 8.67188 80.6328C9.28646 79.6484 9.59375 78.5182 9.59375 77.2422C9.59375 75.8932 9.23958 74.8073 8.53125 73.9844C7.82812 73.1615 6.86458 72.75 5.64062 72.75C4.45312 72.75 3.48438 73.1589 2.73438 73.9766C1.98438 74.7891 1.60938 75.9896 1.60938 77.5781C1.60938 78.849 1.92969 79.9219 2.57031 80.7969C3.21615 81.6667 4.26042 82.1016 5.70312 82.1016ZM17.4531 81.8281C17.9792 81.8281 18.4115 81.7734 18.75 81.6641C19.3542 81.4609 19.849 81.0703 20.2344 80.4922C20.5417 80.0286 20.763 79.4349 20.8984 78.7109C20.9766 78.2786 21.0156 77.8776 21.0156 77.5078C21.0156 76.0859 20.7318 74.9818 20.1641 74.1953C19.6016 73.4089 18.6927 73.0156 17.4375 73.0156H14.6797V81.8281H17.4531ZM13.1172 71.6797H17.7656C19.3438 71.6797 20.5677 72.2396 21.4375 73.3594C22.2135 74.3698 22.6016 75.6641 22.6016 77.2422C22.6016 78.4609 22.3724 79.5625 21.9141 80.5469C21.1068 82.2865 19.7188 83.1562 17.75 83.1562H13.1172V71.6797ZM29.5625 71.3672C31.5885 71.3672 33.0885 72.0182 34.0625 73.3203C34.8229 74.3359 35.2031 75.6354 35.2031 77.2188C35.2031 78.9323 34.7682 80.3568 33.8984 81.4922C32.8776 82.8255 31.4219 83.4922 29.5312 83.4922C27.7656 83.4922 26.3776 82.9089 25.3672 81.7422C24.4661 80.6172 24.0156 79.1953 24.0156 77.4766C24.0156 75.9245 24.401 74.5964 25.1719 73.4922C26.1615 72.0755 27.625 71.3672 29.5625 71.3672ZM29.7188 82.1016C31.0885 82.1016 32.0781 81.612 32.6875 80.6328C33.3021 79.6484 33.6094 78.5182 33.6094 77.2422C33.6094 75.8932 33.2552 74.8073 32.5469 73.9844C31.8438 73.1615 30.8802 72.75 29.6562 72.75C28.4688 72.75 27.5 73.1589 26.75 73.9766C26 74.7891 25.625 75.9896 25.625 77.5781C25.625 78.849 25.9453 79.9219 26.5859 80.7969C27.2318 81.6667 28.276 82.1016 29.7188 82.1016ZM37.0625 71.6797H38.8984L44.6953 80.9766V71.6797H46.1719V83.1562H44.4297L38.5469 73.8672V83.1562H37.0625V71.6797ZM56.9766 71.6797V73.0469H53.1094V83.1562H51.5312V73.0469H47.6641V71.6797H56.9766ZM63.0781 71.3672C65.1042 71.3672 66.6042 72.0182 67.5781 73.3203C68.3385 74.3359 68.7188 75.6354 68.7188 77.2188C68.7188 78.9323 68.2839 80.3568 67.4141 81.4922C66.3932 82.8255 64.9375 83.4922 63.0469 83.4922C61.2812 83.4922 59.8932 82.9089 58.8828 81.7422C57.9818 80.6172 57.5312 79.1953 57.5312 77.4766C57.5312 75.9245 57.9167 74.5964 58.6875 73.4922C59.6771 72.0755 61.1406 71.3672 63.0781 71.3672ZM63.2344 82.1016C64.6042 82.1016 65.5938 81.612 66.2031 80.6328C66.8177 79.6484 67.125 78.5182 67.125 77.2422C67.125 75.8932 66.7708 74.8073 66.0625 73.9844C65.3594 73.1615 64.3958 72.75 63.1719 72.75C61.9844 72.75 61.0156 73.1589 60.2656 73.9766C59.5156 74.7891 59.1406 75.9896 59.1406 77.5781C59.1406 78.849 59.4609 79.9219 60.1016 80.7969C60.7474 81.6667 61.7917 82.1016 63.2344 82.1016ZM70.5781 71.6797H72.1328V81.7891H77.9453V83.1562H70.5781V71.6797ZM84.4375 71.3672C86.4635 71.3672 87.9635 72.0182 88.9375 73.3203C89.6979 74.3359 90.0781 75.6354 90.0781 77.2188C90.0781 78.9323 89.6432 80.3568 88.7734 81.4922C87.7526 82.8255 86.2969 83.4922 84.4062 83.4922C82.6406 83.4922 81.2526 82.9089 80.2422 81.7422C79.3411 80.6172 78.8906 79.1953 78.8906 77.4766C78.8906 75.9245 79.276 74.5964 80.0469 73.4922C81.0365 72.0755 82.5 71.3672 84.4375 71.3672ZM84.5938 82.1016C85.9635 82.1016 86.9531 81.612 87.5625 80.6328C88.1771 79.6484 88.4844 78.5182 88.4844 77.2422C88.4844 75.8932 88.1302 74.8073 87.4219 73.9844C86.7188 73.1615 85.7552 72.75 84.5312 72.75C83.3438 72.75 82.375 73.1589 81.625 73.9766C80.875 74.7891 80.5 75.9896 80.5 77.5781C80.5 78.849 80.8203 79.9219 81.4609 80.7969C82.1068 81.6667 83.151 82.1016 84.5938 82.1016ZM86.1641 68.2031L84.0781 70.4609H83L84.4297 68.2031H86.1641ZM96.8984 71.3828C97.9766 71.3828 98.9089 71.5911 99.6953 72.0078C100.836 72.6068 101.534 73.6562 101.789 75.1562H100.25C100.062 74.3177 99.6745 73.7083 99.0859 73.3281C98.4974 72.9427 97.7552 72.75 96.8594 72.75C95.7969 72.75 94.901 73.1484 94.1719 73.9453C93.4479 74.7422 93.0859 75.9297 93.0859 77.5078C93.0859 78.8724 93.3854 79.9844 93.9844 80.8438C94.5833 81.6979 95.5599 82.125 96.9141 82.125C97.9505 82.125 98.8073 81.8255 99.4844 81.2266C100.167 80.6224 100.516 79.6484 100.531 78.3047H96.9375V77.0156H101.977V83.1562H100.977L100.602 81.6797C100.076 82.2578 99.6094 82.6589 99.2031 82.8828C98.5208 83.2682 97.6536 83.4609 96.6016 83.4609C95.2422 83.4609 94.0729 83.0208 93.0938 82.1406C92.026 81.0365 91.4922 79.5208 91.4922 77.5938C91.4922 75.6719 92.013 74.1432 93.0547 73.0078C94.0443 71.9245 95.3255 71.3828 96.8984 71.3828ZM104.742 71.6797H106.312V83.1562H104.742V71.6797ZM113.68 71.3672C115.133 71.3672 116.26 71.75 117.062 72.5156C117.865 73.2812 118.31 74.151 118.398 75.125H116.883C116.711 74.3854 116.367 73.7995 115.852 73.3672C115.341 72.9349 114.622 72.7188 113.695 72.7188C112.565 72.7188 111.651 73.1172 110.953 73.9141C110.26 74.7057 109.914 75.9219 109.914 77.5625C109.914 78.9062 110.227 79.9974 110.852 80.8359C111.482 81.6693 112.419 82.0859 113.664 82.0859C114.81 82.0859 115.682 81.6458 116.281 80.7656C116.599 80.3021 116.836 79.6927 116.992 78.9375H118.508C118.372 80.1458 117.924 81.1589 117.164 81.9766C116.253 82.9609 115.023 83.4531 113.477 83.4531C112.143 83.4531 111.023 83.0495 110.117 82.2422C108.924 81.1745 108.328 79.526 108.328 77.2969C108.328 75.6042 108.776 74.2161 109.672 73.1328C110.641 71.9557 111.977 71.3672 113.68 71.3672ZM125.359 71.3672C127.385 71.3672 128.885 72.0182 129.859 73.3203C130.62 74.3359 131 75.6354 131 77.2188C131 78.9323 130.565 80.3568 129.695 81.4922C128.674 82.8255 127.219 83.4922 125.328 83.4922C123.562 83.4922 122.174 82.9089 121.164 81.7422C120.263 80.6172 119.812 79.1953 119.812 77.4766C119.812 75.9245 120.198 74.5964 120.969 73.4922C121.958 72.0755 123.422 71.3672 125.359 71.3672ZM125.516 82.1016C126.885 82.1016 127.875 81.612 128.484 80.6328C129.099 79.6484 129.406 78.5182 129.406 77.2422C129.406 75.8932 129.052 74.8073 128.344 73.9844C127.641 73.1615 126.677 72.75 125.453 72.75C124.266 72.75 123.297 73.1589 122.547 73.9766C121.797 74.7891 121.422 75.9896 121.422 77.5781C121.422 78.849 121.742 79.9219 122.383 80.7969C123.029 81.6667 124.073 82.1016 125.516 82.1016Z" fill="white"/>
</svg>
