<svg width="19" height="24" viewBox="0 0 19 24" fill="none" xmlns="http://www.w3.org/2000/svg">
<path d="M9.50064 3.31579L9.50064 1L9.50064 3.31579Z" fill="white"/>
<path d="M6.62252 19.5263C5.92665 19.5263 3.75865 19.5263 2.15239 19.5263C1.29657 19.5263 0.740988 18.6205 1.12372 17.8506L2.107 15.8727C2.42671 15.2296 2.59316 14.5212 2.59316 13.8021C2.59316 12.9109 2.59316 11.5871 2.59316 10.2632C2.59316 7.94737 3.74441 3.31579 9.50064 3.31579M6.62252 19.5263C6.62252 21.8421 7.77377 23 9.50064 23C11.2275 23 12.3788 21.8421 12.3788 19.5263M6.62252 19.5263C8.42089 19.5263 12.3788 19.5263 12.3788 19.5263M9.50064 3.31579C15.2569 3.31579 16.4081 7.94737 16.4081 10.2632C16.4081 11.5871 16.4081 12.9109 16.4081 13.8021C16.4081 14.5212 16.5746 15.2296 16.8943 15.8727L17.8776 17.8506C18.2602 18.6205 17.7036 19.5263 16.8479 19.5263H12.3788M9.50064 3.31579L9.50064 1" stroke="white" stroke-width="2" stroke-linecap="round" stroke-linejoin="round"/>
</svg>
